<svg width="24" height="25" viewBox="0 0 24 25" fill="none" xmlns="http://www.w3.org/2000/svg">
<path d="M17.25 12.5H18.75V10.8L20.225 11.65L20.975 10.35L19.5 9.5L20.975 8.65L20.225 7.35L18.75 8.2V6.5H17.25V8.2L15.775 7.35L15.025 8.65L16.5 9.5L15.025 10.35L15.775 11.65L17.25 10.8V12.5ZM2 21.5C1.45 21.5 0.979167 21.3042 0.5875 20.9125C0.195833 20.5208 0 20.05 0 19.5V5.5C0 4.95 0.195833 4.47917 0.5875 4.0875C0.979167 3.69583 1.45 3.5 2 3.5H22C22.55 3.5 23.0208 3.69583 23.4125 4.0875C23.8042 4.47917 24 4.95 24 5.5V19.5C24 20.05 23.8042 20.5208 23.4125 20.9125C23.0208 21.3042 22.55 21.5 22 21.5H2ZM9 14.5C9.83333 14.5 10.5417 14.2083 11.125 13.625C11.7083 13.0417 12 12.3333 12 11.5C12 10.6667 11.7083 9.95833 11.125 9.375C10.5417 8.79167 9.83333 8.5 9 8.5C8.16667 8.5 7.45833 8.79167 6.875 9.375C6.29167 9.95833 6 10.6667 6 11.5C6 12.3333 6.29167 13.0417 6.875 13.625C7.45833 14.2083 8.16667 14.5 9 14.5ZM2.1 19.5H15.9C15.2 18.25 14.2333 17.2708 13 16.5625C11.7667 15.8542 10.4333 15.5 9 15.5C7.56667 15.5 6.23333 15.8542 5 16.5625C3.76667 17.2708 2.8 18.25 2.1 19.5Z" fill="#1A71F6"/>
</svg>
