<svg width="24" height="25" viewBox="0 0 24 25" fill="none" xmlns="http://www.w3.org/2000/svg">
<mask id="mask0_2033_2558" style="mask-type:alpha" maskUnits="userSpaceOnUse" x="0" y="0" width="24" height="25">
<rect y="0.5" width="24" height="24" fill="#D9D9D9"/>
</mask>
<g mask="url(#mask0_2033_2558)">
<path d="M6 20.5C4.9 20.5 3.95833 20.1083 3.175 19.325C2.39167 18.5417 2 17.6 2 16.5V8.5C2 7.4 2.39167 6.45833 3.175 5.675C3.95833 4.89167 4.9 4.5 6 4.5H18C19.1 4.5 20.0417 4.89167 20.825 5.675C21.6083 6.45833 22 7.4 22 8.5V16.5C22 17.6 21.6083 18.5417 20.825 19.325C20.0417 20.1083 19.1 20.5 18 20.5H6ZM6 8.5H18C18.3667 8.5 18.7167 8.54167 19.05 8.625C19.3833 8.70833 19.7 8.84167 20 9.025V8.5C20 7.95 19.8042 7.47917 19.4125 7.0875C19.0208 6.69583 18.55 6.5 18 6.5H6C5.45 6.5 4.97917 6.69583 4.5875 7.0875C4.19583 7.47917 4 7.95 4 8.5V9.025C4.3 8.84167 4.61667 8.70833 4.95 8.625C5.28333 8.54167 5.63333 8.5 6 8.5ZM4.15 11.75L15.275 14.45C15.425 14.4833 15.575 14.4833 15.725 14.45C15.875 14.4167 16.0167 14.35 16.15 14.25L19.625 11.35C19.4417 11.1 19.2083 10.8958 18.925 10.7375C18.6417 10.5792 18.3333 10.5 18 10.5H6C5.56667 10.5 5.1875 10.6125 4.8625 10.8375C4.5375 11.0625 4.3 11.3667 4.15 11.75Z" fill="#1A71F6"/>
</g>
</svg>
