<svg width="24" height="25" viewBox="0 0 24 25" fill="none" xmlns="http://www.w3.org/2000/svg">
<path fill-rule="evenodd" clip-rule="evenodd" d="M13.0001 3.5C13.0001 3.23478 12.8947 2.98043 12.7072 2.79289C12.5197 2.60536 12.2653 2.5 12.0001 2.5C11.7349 2.5 11.4805 2.60536 11.293 2.79289C11.1055 2.98043 11.0001 3.23478 11.0001 3.5V4.25H10.4431C9.37113 4.24993 8.33943 4.65839 7.55803 5.39224C6.77662 6.12608 6.30426 7.13014 6.2371 8.2L6.0161 11.734C5.93067 13.0812 5.47835 14.3794 4.7081 15.488C4.54874 15.7171 4.45136 15.9835 4.42545 16.2613C4.39953 16.5392 4.44596 16.819 4.56022 17.0736C4.67447 17.3281 4.85267 17.5488 5.07747 17.7142C5.30227 17.8795 5.56604 17.9838 5.8431 18.017L9.2501 18.425V19.5C9.2501 20.2293 9.53983 20.9288 10.0556 21.4445C10.5713 21.9603 11.2708 22.25 12.0001 22.25C12.7294 22.25 13.4289 21.9603 13.9446 21.4445C14.4604 20.9288 14.7501 20.2293 14.7501 19.5V18.425L18.1571 18.016C18.434 17.9827 18.6976 17.8784 18.9223 17.7131C19.1469 17.5478 19.325 17.3273 19.4393 17.0729C19.5535 16.8184 19.6 16.5388 19.5742 16.2611C19.5484 15.9834 19.4512 15.7171 19.2921 15.488C18.5219 14.3794 18.0695 13.0812 17.9841 11.734L17.7631 8.201C17.6962 7.13096 17.2239 6.12665 16.4425 5.3926C15.6611 4.65855 14.6292 4.24995 13.5571 4.25H13.0001V3.5ZM10.7501 19.5C10.7501 19.8315 10.8818 20.1495 11.1162 20.3839C11.3506 20.6183 11.6686 20.75 12.0001 20.75C12.3316 20.75 12.6496 20.6183 12.884 20.3839C13.1184 20.1495 13.2501 19.8315 13.2501 19.5V18.75H10.7501V19.5Z" fill="#1A71F6"/>
</svg>
