<svg width="24" height="25" viewBox="0 0 24 25" fill="none" xmlns="http://www.w3.org/2000/svg">
<mask id="mask0_2033_876" style="mask-type:alpha" maskUnits="userSpaceOnUse" x="0" y="0" width="24" height="25">
<rect y="0.5" width="24" height="24" fill="#D9D9D9"/>
</mask>
<g mask="url(#mask0_2033_876)">
<path d="M12 5.5C11.45 5.5 10.9792 5.30417 10.5875 4.9125C10.1958 4.52083 10 4.05 10 3.5C10 2.95 10.1958 2.47917 10.5875 2.0875C10.9792 1.69583 11.45 1.5 12 1.5C12.55 1.5 13.0208 1.69583 13.4125 2.0875C13.8042 2.47917 14 2.95 14 3.5C14 4.05 13.8042 4.52083 13.4125 4.9125C13.0208 5.30417 12.55 5.5 12 5.5ZM9 21.5V8.5H3V6.5H21V8.5H15V21.5H13V15.5H11V21.5H9Z" fill="#32343E"/>
</g>
</svg>
