<svg width="17" height="16" viewBox="0 0 17 16" fill="none" xmlns="http://www.w3.org/2000/svg">
<mask id="mask0_120_6741" style="mask-type:alpha" maskUnits="userSpaceOnUse" x="0" y="0" width="17" height="16">
<rect x="0.285645" width="16" height="16" fill="#D9D9D9"/>
</mask>
<g mask="url(#mask0_120_6741)">
<path d="M7.35247 11.0673L12.0525 6.36732L11.1191 5.43398L7.35247 9.20065L5.45247 7.30065L4.51914 8.23398L7.35247 11.0673ZM8.28581 14.6673C7.36358 14.6673 6.49692 14.4923 5.68581 14.1423C4.8747 13.7923 4.16914 13.3173 3.56914 12.7173C2.96914 12.1173 2.49414 11.4118 2.14414 10.6007C1.79414 9.78954 1.61914 8.92287 1.61914 8.00065C1.61914 7.07843 1.79414 6.21176 2.14414 5.40065C2.49414 4.58954 2.96914 3.88398 3.56914 3.28398C4.16914 2.68398 4.8747 2.20898 5.68581 1.85898C6.49692 1.50898 7.36358 1.33398 8.28581 1.33398C9.20803 1.33398 10.0747 1.50898 10.8858 1.85898C11.6969 2.20898 12.4025 2.68398 13.0025 3.28398C13.6025 3.88398 14.0775 4.58954 14.4275 5.40065C14.7775 6.21176 14.9525 7.07843 14.9525 8.00065C14.9525 8.92287 14.7775 9.78954 14.4275 10.6007C14.0775 11.4118 13.6025 12.1173 13.0025 12.7173C12.4025 13.3173 11.6969 13.7923 10.8858 14.1423C10.0747 14.4923 9.20803 14.6673 8.28581 14.6673ZM8.28581 13.334C9.7747 13.334 11.0358 12.8173 12.0691 11.784C13.1025 10.7507 13.6191 9.48954 13.6191 8.00065C13.6191 6.51176 13.1025 5.25065 12.0691 4.21732C11.0358 3.18398 9.7747 2.66732 8.28581 2.66732C6.79692 2.66732 5.53581 3.18398 4.50247 4.21732C3.46914 5.25065 2.95247 6.51176 2.95247 8.00065C2.95247 9.48954 3.46914 10.7507 4.50247 11.784C5.53581 12.8173 6.79692 13.334 8.28581 13.334Z" fill="#008000"/>
</g>
</svg>
