<svg width="24" height="25" viewBox="0 0 24 25" fill="none" xmlns="http://www.w3.org/2000/svg">
<mask id="mask0_2033_904" style="mask-type:alpha" maskUnits="userSpaceOnUse" x="0" y="0" width="24" height="25">
<rect y="0.5" width="24" height="24" fill="#D9D9D9"/>
</mask>
<g mask="url(#mask0_2033_904)">
<path d="M11.9 16.5C12.25 16.5 12.5458 16.3792 12.7875 16.1375C13.0292 15.8958 13.15 15.6 13.15 15.25C13.15 14.9 13.0292 14.6042 12.7875 14.3625C12.5458 14.1208 12.25 14 11.9 14C11.55 14 11.2542 14.1208 11.0125 14.3625C10.7708 14.6042 10.65 14.9 10.65 15.25C10.65 15.6 10.7708 15.8958 11.0125 16.1375C11.2542 16.3792 11.55 16.5 11.9 16.5ZM11 12.65H12.85C12.85 12.3667 12.8625 12.125 12.8875 11.925C12.9125 11.725 12.9667 11.5333 13.05 11.35C13.1333 11.1667 13.2375 10.9958 13.3625 10.8375C13.4875 10.6792 13.6667 10.4833 13.9 10.25C14.4833 9.66667 14.8958 9.17917 15.1375 8.7875C15.3792 8.39583 15.5 7.95 15.5 7.45C15.5 6.56667 15.2 5.85417 14.6 5.3125C14 4.77083 13.1917 4.5 12.175 4.5C11.2583 4.5 10.4792 4.725 9.8375 5.175C9.19583 5.625 8.75 6.25 8.5 7.05L10.15 7.7C10.2667 7.25 10.5 6.8875 10.85 6.6125C11.2 6.3375 11.6083 6.2 12.075 6.2C12.525 6.2 12.9 6.32083 13.2 6.5625C13.5 6.80417 13.65 7.125 13.65 7.525C13.65 7.80833 13.5583 8.10833 13.375 8.425C13.1917 8.74167 12.8833 9.09167 12.45 9.475C12.1667 9.70833 11.9375 9.9375 11.7625 10.1625C11.5875 10.3875 11.4417 10.625 11.325 10.875C11.2083 11.125 11.125 11.3875 11.075 11.6625C11.025 11.9375 11 12.2667 11 12.65ZM12 22.5L9 19.5H5C4.45 19.5 3.97917 19.3042 3.5875 18.9125C3.19583 18.5208 3 18.05 3 17.5V3.5C3 2.95 3.19583 2.47917 3.5875 2.0875C3.97917 1.69583 4.45 1.5 5 1.5H19C19.55 1.5 20.0208 1.69583 20.4125 2.0875C20.8042 2.47917 21 2.95 21 3.5V17.5C21 18.05 20.8042 18.5208 20.4125 18.9125C20.0208 19.3042 19.55 19.5 19 19.5H15L12 22.5ZM5 17.5H9.8L12 19.7L14.2 17.5H19V3.5H5V17.5Z" fill="#32343E"/>
</g>
</svg>
