<svg width="18" height="18" viewBox="0 0 18 18" fill="none" xmlns="http://www.w3.org/2000/svg">
<path opacity="0.5" d="M16.6919 8.4852L9.27312 15.8516C8.36426 16.7541 7.13159 17.2611 5.84628 17.2611C4.56097 17.2611 3.3283 16.7541 2.41944 15.8516C1.51059 14.9492 1 13.7252 1 12.449C1 11.1727 1.51059 9.94874 2.41944 9.0463L9.8382 1.67986C10.4441 1.07823 11.2659 0.740234 12.1228 0.740234C12.9796 0.740234 13.8014 1.07823 14.4073 1.67986C15.0132 2.28149 15.3536 3.09747 15.3536 3.9483C15.3536 4.79913 15.0132 5.61512 14.4073 6.21675L6.98049 13.5832C6.67753 13.884 6.26664 14.053 5.83821 14.053C5.40977 14.053 4.99888 13.884 4.69593 13.5832C4.39298 13.2824 4.22278 12.8744 4.22278 12.449C4.22278 12.0235 4.39298 11.6156 4.69593 11.3147L11.5496 4.51742" stroke="#32343E" stroke-linecap="round" stroke-linejoin="round"/>
</svg>
