<svg width="21" height="21" viewBox="0 0 21 21" fill="none" xmlns="http://www.w3.org/2000/svg">
<path d="M10.5805 15.973C13.6031 15.973 16.0534 13.5228 16.0534 10.5002C16.0534 7.47762 13.6031 5.02734 10.5805 5.02734C7.55794 5.02734 5.10767 7.47762 5.10767 10.5002C5.10767 13.5228 7.55794 15.973 10.5805 15.973Z" stroke="white" stroke-width="1.26296" stroke-linecap="round" stroke-linejoin="round"/>
<path d="M16.5921 16.5116L16.4827 16.4021M16.4827 4.59759L16.5921 4.48813L16.4827 4.59759ZM4.5687 16.5116L4.67815 16.4021L4.5687 16.5116ZM10.5804 2.14744V2.08008V2.14744ZM10.5804 18.9196V18.8522V18.9196ZM2.228 10.4998H2.16064H2.228ZM19.0002 10.4998H18.9328H19.0002ZM4.67815 4.59759L4.5687 4.48813L4.67815 4.59759Z" stroke="white" stroke-width="1.68395" stroke-linecap="round" stroke-linejoin="round"/>
</svg>
