<svg width="24" height="25" viewBox="0 0 24 25" fill="none" xmlns="http://www.w3.org/2000/svg">
<path fill-rule="evenodd" clip-rule="evenodd" d="M3.5 10.068V14.932C3.5 17.226 3.5 18.372 4.222 19.085C4.877 19.732 5.896 19.791 7.818 19.797C7.717 19.122 7.696 18.317 7.69 17.369C7.69 17.2725 7.70902 17.177 7.74597 17.0879C7.78292 16.9988 7.83707 16.9178 7.90534 16.8496C7.9736 16.7815 8.05464 16.7274 8.1438 16.6906C8.23297 16.6538 8.32853 16.6349 8.425 16.635C8.52152 16.6338 8.61734 16.6516 8.70697 16.6875C8.7966 16.7233 8.87829 16.7765 8.94738 16.8439C9.01646 16.9113 9.0716 16.9917 9.10962 17.0804C9.14765 17.1691 9.16783 17.2645 9.169 17.361C9.175 18.425 9.202 19.179 9.309 19.751C9.412 20.303 9.576 20.621 9.816 20.859C10.089 21.129 10.472 21.304 11.196 21.399C11.94 21.499 12.926 21.5 14.341 21.5H15.326C16.741 21.5 17.727 21.498 18.472 21.4C19.195 21.304 19.578 21.128 19.85 20.859C20.123 20.589 20.301 20.211 20.398 19.497C20.498 18.763 20.5 17.788 20.5 16.392V8.608C20.5 7.211 20.498 6.238 20.398 5.503C20.301 4.789 20.123 4.41 19.851 4.141C19.578 3.871 19.195 3.696 18.471 3.601C17.728 3.5 16.742 3.5 15.327 3.5H14.342C12.927 3.5 11.941 3.502 11.196 3.6C10.473 3.696 10.09 3.872 9.817 4.141C9.577 4.378 9.413 4.697 9.31 5.249C9.203 5.821 9.176 6.575 9.17 7.639C9.16883 7.73552 9.14865 7.83087 9.11062 7.9196C9.0726 8.00832 9.01746 8.08869 8.94838 8.1561C8.87929 8.22352 8.7976 8.27667 8.70797 8.31251C8.61834 8.34835 8.52252 8.36619 8.426 8.365C8.32953 8.36513 8.23397 8.34624 8.1448 8.30941C8.05563 8.27259 7.9746 8.21854 7.90634 8.15037C7.83807 8.0822 7.78392 8.00124 7.74697 7.91212C7.71002 7.823 7.691 7.72747 7.691 7.631C7.697 6.683 7.718 5.878 7.819 5.203C5.897 5.209 4.879 5.268 4.223 5.915C3.501 6.628 3.5 7.775 3.5 10.068ZM5.935 13.016C5.86643 12.9487 5.81195 12.8684 5.77477 12.7798C5.73758 12.6912 5.71843 12.5961 5.71843 12.5C5.71843 12.4039 5.73758 12.3088 5.77477 12.2202C5.81195 12.1316 5.86643 12.0513 5.935 11.984L7.905 10.038C8.04452 9.90083 8.23234 9.82397 8.428 9.82397C8.62366 9.82397 8.81148 9.90083 8.951 10.038C9.01958 10.1053 9.07405 10.1856 9.11123 10.2742C9.14842 10.3628 9.16757 10.4579 9.16757 10.554C9.16757 10.6501 9.14842 10.7452 9.11123 10.8338C9.07405 10.9224 9.01958 11.0027 8.951 11.07L8.241 11.77H15.327C15.735 11.77 16.067 12.097 16.067 12.5C16.067 12.903 15.735 13.23 15.327 13.23H8.24L8.95 13.93C9.01857 13.9973 9.07305 14.0776 9.11023 14.1662C9.14742 14.2548 9.16657 14.3499 9.16657 14.446C9.16657 14.5421 9.14742 14.6372 9.11023 14.7258C9.07305 14.8144 9.01857 14.8947 8.95 14.962C8.81048 15.0992 8.62266 15.176 8.427 15.176C8.23134 15.176 8.04352 15.0992 7.904 14.962L5.935 13.016Z" fill="#EC797B"/>
</svg>
