<svg width="24" height="25" viewBox="0 0 24 25" fill="none" xmlns="http://www.w3.org/2000/svg">
<path d="M22.0451 8.26907L21.9951 14.5691C21.9959 15.1903 21.8735 15.8055 21.6351 16.3791C21.3989 16.9511 21.052 17.4708 20.6144 17.9084C20.1768 18.346 19.6571 18.6928 19.0851 18.9291C18.5115 19.1675 17.8963 19.2899 17.2751 19.2891H14.9451L12.9451 21.2891C12.8207 21.4184 12.6709 21.5205 12.5051 21.5891C12.3327 21.6688 12.145 21.7097 11.9551 21.7091C11.7662 21.7099 11.5791 21.6725 11.4051 21.5991C11.2309 21.5215 11.0744 21.4093 10.9451 21.2691L8.9951 19.3291H6.6651C6.04573 19.3291 5.43244 19.2069 4.86034 18.9696C4.28825 18.7323 3.76858 18.3844 3.33108 17.946C2.89359 17.5076 2.54686 16.9872 2.31075 16.4146C2.07464 15.842 1.95378 15.2284 1.9551 14.6091V8.00907C1.95336 7.38883 2.0744 6.77438 2.31125 6.20114C2.5481 5.62789 2.89607 5.1072 3.3351 4.66907C4.22247 3.79213 5.41754 3.29688 6.6651 3.28907H17.3251C17.9453 3.28775 18.5597 3.40894 19.1329 3.64568C19.7062 3.88241 20.227 4.23003 20.6656 4.66859C21.1041 5.10714 21.4518 5.628 21.6885 6.20125C21.9252 6.7745 22.0464 7.38886 22.0451 8.00907V8.26907Z" fill="#32343E"/>
</svg>
