<svg width="24" height="25" viewBox="0 0 24 25" fill="none" xmlns="http://www.w3.org/2000/svg">
<path d="M21.9646 11.2681L17.7459 14.9084L19.0312 20.3524C19.1021 20.648 19.0838 20.9579 18.9787 21.2431C18.8736 21.5282 18.6863 21.7758 18.4405 21.9546C18.1947 22.1334 17.9015 22.2353 17.5978 22.2475C17.2941 22.2597 16.9936 22.1816 16.7343 22.0231L11.9999 19.1093L7.26275 22.0231C7.00347 22.1807 6.70335 22.258 6.4002 22.2454C6.09704 22.2327 5.8044 22.1307 5.55913 21.9521C5.31386 21.7734 5.12692 21.5262 5.02185 21.2416C4.91679 20.957 4.89829 20.6476 4.96869 20.3524L6.25869 14.9084L2.03994 11.2681C1.81053 11.0698 1.64462 10.8083 1.56293 10.5163C1.48123 10.2243 1.48737 9.91473 1.58058 9.6262C1.67379 9.33767 1.84994 9.08299 2.08703 8.89397C2.32412 8.70495 2.61164 8.58997 2.91369 8.56339L8.44494 8.11714L10.5787 2.95339C10.6942 2.67196 10.8908 2.43124 11.1434 2.26183C11.3961 2.09241 11.6934 2.00195 11.9976 2.00195C12.3018 2.00195 12.5991 2.09241 12.8518 2.26183C13.1044 2.43124 13.301 2.67196 13.4165 2.95339L15.5493 8.11714L21.0806 8.56339C21.3832 8.58898 21.6716 8.70332 21.9095 8.89208C22.1475 9.08084 22.3244 9.33562 22.4182 9.6245C22.512 9.91338 22.5185 10.2235 22.4368 10.5161C22.3551 10.8086 22.1889 11.0705 21.959 11.269L21.9646 11.2681Z" fill="#32343E"/>
</svg>
