<svg width="24" height="25" viewBox="0 0 24 25" fill="none" xmlns="http://www.w3.org/2000/svg">
<mask id="mask0_2033_1802" style="mask-type:alpha" maskUnits="userSpaceOnUse" x="0" y="0" width="24" height="25">
<rect y="0.5" width="24" height="24" fill="#D9D9D9"/>
</mask>
<g mask="url(#mask0_2033_1802)">
<path d="M8.40009 9.10039C9.35487 9.10039 10.2705 8.72111 10.9457 8.04597C11.6208 7.37084 12.0001 6.45517 12.0001 5.50039C12.0001 4.54561 11.6208 3.62994 10.9457 2.95481C10.2705 2.27968 9.35487 1.90039 8.40009 1.90039C7.44531 1.90039 6.52963 2.27968 5.8545 2.95481C5.17937 3.62994 4.80009 4.54561 4.80009 5.50039C4.80009 6.45517 5.17937 7.37084 5.8545 8.04597C6.52963 8.72111 7.44531 9.10039 8.40009 9.10039ZM17.4001 10.3004C18.1957 10.3004 18.9588 9.98432 19.5214 9.42171C20.084 8.8591 20.4001 8.09604 20.4001 7.30039C20.4001 6.50474 20.084 5.74168 19.5214 5.17907C18.9588 4.61646 18.1957 4.30039 17.4001 4.30039C16.6044 4.30039 15.8414 4.61646 15.2788 5.17907C14.7162 5.74168 14.4001 6.50474 14.4001 7.30039C14.4001 8.09604 14.7162 8.8591 15.2788 9.42171C15.8414 9.98432 16.6044 10.3004 17.4001 10.3004ZM1.93809 19.214C1.7024 19.0678 1.5131 18.8576 1.39222 18.608C1.27133 18.3584 1.22385 18.0796 1.25529 17.804C1.47651 16.0653 2.32419 14.4669 3.63946 13.3083C4.95473 12.1498 6.64734 11.5107 8.40009 11.5107C10.1528 11.5107 11.8454 12.1498 13.1607 13.3083C14.476 14.4669 15.3237 16.0653 15.5449 17.804C15.6145 18.3644 15.3385 18.908 14.8609 19.2128C12.9329 20.4486 10.6901 21.1038 8.40009 21.1004C6.10974 21.1044 3.86658 20.4495 1.93809 19.214ZM17.4001 18.7004H17.2729C17.3569 18.344 17.3785 17.9672 17.3305 17.5808C17.1254 15.9312 16.4656 14.371 15.4249 13.0748C16.0946 12.8109 16.8103 12.6836 17.5299 12.7003C18.2496 12.7171 18.9586 12.8775 19.6153 13.1722C20.2721 13.4669 20.8632 13.8899 21.3541 14.4164C21.845 14.9429 22.2256 15.5623 22.4737 16.238C22.5495 16.4537 22.5479 16.689 22.469 16.9036C22.3902 17.1182 22.2391 17.2987 22.0417 17.414C20.6408 18.2582 19.0357 18.7031 17.4001 18.7004Z" fill="#32343E"/>
</g>
</svg>
