<svg width="24" height="25" viewBox="0 0 24 25" fill="none" xmlns="http://www.w3.org/2000/svg">
<g clip-path="url(#clip0_2033_1808)">
<path d="M17.9744 12.4961H19.4744V10.7961L20.9494 11.6461L21.6994 10.3461L20.2244 9.49609L21.6994 8.64609L20.9494 7.34609L19.4744 8.19609V6.49609H17.9744V8.19609L16.4994 7.34609L15.7494 8.64609L17.2244 9.49609L15.7494 10.3461L16.4994 11.6461L17.9744 10.7961V12.4961ZM2.72437 21.4961C2.17437 21.4961 1.70353 21.3003 1.31187 20.9086C0.920199 20.5169 0.724365 20.0461 0.724365 19.4961V5.49609C0.724365 4.94609 0.920199 4.47526 1.31187 4.08359C1.70353 3.69193 2.17437 3.49609 2.72437 3.49609H22.7244C23.2744 3.49609 23.7452 3.69193 24.1369 4.08359C24.5285 4.47526 24.7244 4.94609 24.7244 5.49609V19.4961C24.7244 20.0461 24.5285 20.5169 24.1369 20.9086C23.7452 21.3003 23.2744 21.4961 22.7244 21.4961H2.72437ZM9.72437 14.4961C10.5577 14.4961 11.266 14.2044 11.8494 13.6211C12.4327 13.0378 12.7244 12.3294 12.7244 11.4961C12.7244 10.6628 12.4327 9.95443 11.8494 9.37109C11.266 8.78776 10.5577 8.49609 9.72437 8.49609C8.89103 8.49609 8.1827 8.78776 7.59937 9.37109C7.01603 9.95443 6.72437 10.6628 6.72437 11.4961C6.72437 12.3294 7.01603 13.0378 7.59937 13.6211C8.1827 14.2044 8.89103 14.4961 9.72437 14.4961ZM2.82437 19.4961H16.6244C15.9244 18.2461 14.9577 17.2669 13.7244 16.5586C12.491 15.8503 11.1577 15.4961 9.72437 15.4961C8.29103 15.4961 6.9577 15.8503 5.72437 16.5586C4.49103 17.2669 3.52437 18.2461 2.82437 19.4961Z" fill="#32343E"/>
</g>
<defs>
<clipPath id="clip0_2033_1808">
<rect width="24" height="24" fill="white" transform="translate(0 0.5)"/>
</clipPath>
</defs>
</svg>
